# xmcd CD database file
#
# Track frame offsets:
#	182
#	14052
#	27572
#	44417
#	58050
#	70645
#	91217
#	103467
#	123005
#	137650
#
# Disc length: 2053 seconds
#
# Revision: 8
# Processed by: cddbd v1.5.2PL0 Copyright (c) Steve Scherf et al.
# Submitted via: CDex 1.79
#
DISCID=8c08030a
DTITLE=Shelby Lynne - Temptation
DYEAR=1993
DGENRE=Country
TTITLE0=Tempation
TTITLE1=Feelin' Kind Of Lonely Tonight
TTITLE2=Tell Me I'm Crazy
TTITLE3=Little Unlucky At Love
TTITLE4=Some Of That True Love
TTITLE5=The Rain Might Wash Your Love Away
TTITLE6=Don't Cry For Me
TTITLE7=I Need A Heart To Come Home To
TTITLE8=Come A Little Closer
TTITLE9=Where We Go From Here
EXTD=YEAR: 1993
EXTT0=
EXTT1=
EXTT2=
EXTT3=
EXTT4=
EXTT5=
EXTT6=
EXTT7=
EXTT8=
EXTT9=
PLAYORDER=
